<svg width="990" height="133" viewBox="0 0 990 133" fill="none" xmlns="http://www.w3.org/2000/svg">
<g filter="url(#filter0_d_420_11)">
<path d="M10.5732 11.1426C14.9678 11.9238 18.5811 12.4609 21.4131 12.7539C24.2451 13.0469 26.54 13.291 28.2979 13.4863C30.3486 13.6816 31.96 13.7305 33.1318 13.6328H37.5264C39.0889 13.6328 41.042 13.6328 43.3857 13.6328C45.8271 13.5352 48.8545 13.4863 52.4678 13.4863C54.5186 18.2715 56.374 22.666 58.0342 26.6699C59.792 30.6738 61.2568 34.0918 62.4287 36.9238C63.7959 40.3418 65.0654 43.418 66.2373 46.1523C67.6045 49.5703 69.0693 53.3301 70.6318 57.4316C72.1943 61.5332 73.6104 65.3906 74.8799 69.0039C76.2471 72.6172 77.3701 75.5957 78.249 77.9395C79.1279 80.2832 79.5674 81.3574 79.5674 81.1621C79.5674 81.0645 79.6162 80.0879 79.7139 78.2324C79.8115 76.2793 79.9092 73.8867 80.0068 71.0547C80.1045 68.125 80.2021 64.9512 80.2998 61.5332C80.4951 58.0176 80.5928 54.6484 80.5928 51.4258C80.6904 48.1055 80.7393 45.0781 80.7393 42.3438C80.7393 39.6094 80.6416 37.5586 80.4463 36.1914C80.1533 34.5312 79.5674 32.627 78.6885 30.4785C77.9072 28.623 76.833 26.4258 75.4658 23.8867C74.0986 21.25 72.1943 18.2715 69.7529 14.9512C73.7568 15.0488 77.0283 15.0977 79.5674 15.0977C82.1064 15.0977 84.1572 15.0977 85.7197 15.0977C87.4775 15.0977 88.8447 15.0488 89.8213 14.9512C91.0908 14.9512 92.6533 14.8535 94.5088 14.6582C96.1689 14.4629 98.2197 14.3164 100.661 14.2188C103.2 14.0234 106.325 13.7793 110.036 13.4863C107.888 15.4395 106.179 17.2949 104.909 19.0527C103.64 20.8105 102.614 22.373 101.833 23.7402C100.954 25.3027 100.368 26.7676 100.075 28.1348C99.6846 29.8926 99.3428 32.7734 99.0498 36.7773C98.8545 40.6836 98.6104 45.0781 98.3174 49.9609C98.1221 54.8438 97.9268 59.9219 97.7314 65.1953C97.5361 70.4688 97.3408 75.3027 97.1455 79.6973C97.1455 83.0176 97.0479 86.582 96.8525 90.3906C96.6572 93.6133 96.4619 97.2754 96.2666 101.377C96.0713 105.381 95.8271 109.434 95.5342 113.535L82.4971 113.828C78.6885 107.09 75.4658 101.328 72.8291 96.543C70.29 91.6602 68.1904 87.6562 66.5303 84.5312C64.6748 80.918 63.1123 77.8906 61.8428 75.4492C60.7686 73.1055 59.3525 70.4199 57.5947 67.3926C56.1299 64.8535 54.2744 61.7285 52.0283 58.0176C49.8799 54.3066 47.292 50.0586 44.2646 45.2734C43.9717 52.0117 43.8252 57.7734 43.8252 62.5586C43.9229 67.2461 44.0693 71.1523 44.2646 74.2773C44.5576 77.8906 44.8994 80.918 45.29 83.3594C45.7783 85.7031 46.4619 88.3398 47.3408 91.2695C48.1221 93.8086 49.0498 96.7871 50.124 100.205C51.2959 103.623 52.7119 107.48 54.3721 111.777C48.6104 111.484 44.3135 111.338 41.4814 111.338H37.0869C35.7197 111.338 33.8643 111.484 31.5205 111.777C29.5674 111.973 26.8818 112.266 23.4639 112.656C20.1436 113.047 15.9932 113.584 11.0127 114.268C13.3564 111.436 15.2119 108.848 16.5791 106.504C18.0439 104.062 19.167 102.012 19.9482 100.352C20.9248 98.3984 21.6084 96.6895 21.999 95.2246C22.292 93.6621 22.4873 90.9766 22.585 87.168C22.6826 83.2617 22.6826 78.8672 22.585 73.9844C22.585 69.0039 22.4873 63.7793 22.292 58.3105C22.1943 52.8418 22.0479 47.7637 21.8525 43.0762C21.6572 38.3887 21.4131 34.3848 21.1201 31.0645C20.9248 27.7441 20.7783 25.6934 20.6807 24.9121C20.3877 23.6426 19.8018 22.2754 18.9229 20.8105C18.1416 19.541 17.1162 18.125 15.8467 16.5625C14.5771 14.9023 12.8193 13.0957 10.5732 11.1426ZM149.294 49.375C151.833 49.375 154.47 49.8633 157.204 50.8398C159.938 51.7188 162.575 52.8906 165.114 54.3555C167.653 55.7227 169.948 57.2363 171.999 58.8965C174.147 60.459 175.905 61.9727 177.272 63.4375C179.714 66.0742 181.374 69.6387 182.253 74.1309C183.229 78.5254 183.425 83.0664 182.839 87.7539C182.253 92.3438 180.886 96.6895 178.737 100.791C176.589 104.893 173.61 107.92 169.802 109.873C167.067 111.24 164.382 112.314 161.745 113.096C159.108 113.877 156.569 114.463 154.128 114.854C151.687 115.244 149.392 115.439 147.243 115.439C145.095 115.439 143.239 115.391 141.677 115.293C138.747 115.098 135.671 114.072 132.448 112.217C129.323 110.361 126.345 108.066 123.513 105.332C120.778 102.598 118.435 99.6191 116.481 96.3965C114.528 93.0762 113.356 89.9512 112.966 87.0215C112.38 83.0176 112.282 78.8184 112.673 74.4238C113.063 70.0293 114.479 65.9766 116.921 62.2656C119.46 58.5547 123.269 55.4785 128.347 53.0371C133.522 50.5957 140.505 49.375 149.294 49.375ZM144.46 106.211C145.534 106.406 146.999 106.162 148.854 105.479C150.71 104.697 152.517 103.477 154.274 101.816C156.13 100.156 157.741 98.0566 159.108 95.5176C160.573 92.8809 161.452 89.707 161.745 85.9961C162.038 82.3828 162.038 79.0625 161.745 76.0352C161.55 73.0078 161.11 70.3711 160.427 68.125C159.743 65.7812 158.962 63.877 158.083 62.4121C157.204 60.9473 156.276 59.9219 155.3 59.3359C153.64 58.457 151.638 57.7734 149.294 57.2852C146.95 56.6992 144.948 56.7969 143.288 57.5781C142.507 57.9688 141.53 58.7988 140.358 60.0684C139.187 61.3379 138.015 62.9492 136.843 64.9023C135.671 66.7578 134.597 68.9062 133.62 71.3477C132.741 73.7891 132.106 76.3281 131.716 78.9648C131.325 81.6016 131.228 84.4336 131.423 87.4609C131.716 90.4883 132.351 93.3691 133.327 96.1035C134.304 98.7402 135.671 101.035 137.429 102.988C139.284 104.844 141.628 105.918 144.46 106.211ZM232.79 8.06641C239.333 8.84766 244.997 9.43359 249.782 9.82422C254.567 10.1172 258.522 10.3613 261.647 10.5566C265.261 10.752 268.288 10.8008 270.729 10.7031C273.269 10.6055 276.735 10.3613 281.13 9.9707C284.841 9.67773 289.724 9.28711 295.778 8.79883C301.833 8.21289 309.401 7.43164 318.483 6.45508C318.581 8.70117 318.63 10.8984 318.63 13.0469C318.728 15.0977 318.825 16.9043 318.923 18.4668C319.021 20.3223 319.069 22.0313 319.069 23.5938C319.069 25.2539 318.972 27.3535 318.776 29.8926C318.581 32.041 318.239 34.7754 317.751 38.0957C317.36 41.3184 316.726 45.1758 315.847 49.668C314.479 44.3945 313.161 40.1465 311.892 36.9238C310.622 33.6035 309.45 30.9668 308.376 29.0137C307.204 26.7676 306.032 25.0586 304.86 23.8867C303.591 23.0078 302.077 22.2754 300.319 21.6895C298.757 21.2012 296.755 20.8105 294.313 20.5176C291.97 20.2246 289.187 20.2734 285.964 20.6641C285.476 33.5547 285.134 44.0039 284.938 52.0117C284.743 60.0195 284.597 66.2695 284.499 70.7617C284.401 76.1328 284.353 79.9902 284.353 82.334C284.45 85.6543 284.987 88.9258 285.964 92.1484C286.745 94.8828 288.015 97.7148 289.772 100.645C291.53 103.574 294.069 106.162 297.39 108.408H279.519C277.858 108.408 275.808 108.506 273.366 108.701C271.315 108.896 268.679 109.092 265.456 109.287C262.331 109.482 258.669 109.824 254.47 110.312C255.935 107.773 257.106 105.479 257.985 103.428C258.864 101.377 259.548 99.6191 260.036 98.1543C260.622 96.3965 261.062 94.834 261.354 93.4668C261.452 91.5137 261.696 87.5586 262.087 81.6016C262.185 79.1602 262.282 76.1328 262.38 72.5195C262.575 68.9062 262.771 64.6094 262.966 59.6289C263.259 54.6484 263.503 48.9355 263.698 42.4902C263.991 35.9473 264.284 28.5742 264.577 20.3711C262.819 19.8828 261.159 19.9316 259.597 20.5176C258.034 21.0059 256.667 21.6406 255.495 22.4219C254.128 23.3984 252.81 24.5703 251.54 25.9375C250.271 27.5977 248.854 29.7461 247.292 32.3828C245.925 34.6289 244.362 37.6074 242.604 41.3184C240.847 44.9316 238.845 49.4238 236.599 54.7949C236.11 49.1309 235.769 44.4922 235.573 40.8789C235.378 37.168 235.231 34.2871 235.134 32.2363C235.036 29.7949 234.987 27.9883 234.987 26.8164C234.987 25.7422 234.89 24.3262 234.694 22.5684C234.499 21.1035 234.255 19.1992 233.962 16.8555C233.669 14.4141 233.278 11.4844 232.79 8.06641ZM327.858 55.6738C328.347 55.0879 328.64 54.0137 328.737 52.4512C328.933 50.791 329.323 48.9355 329.909 46.8848C330.593 44.834 331.716 42.6855 333.278 40.4395C334.841 38.1934 337.38 36.0938 340.896 34.1406C344.313 32.1875 347.634 31.0156 350.856 30.625C354.079 30.2344 357.155 30.3809 360.085 31.0645C363.015 31.748 365.749 32.8223 368.288 34.2871C370.925 35.752 373.317 37.3633 375.466 39.1211C376.931 40.293 378.103 42.002 378.981 44.248C379.86 46.3965 380.544 48.8379 381.032 51.5723C381.521 54.3066 381.862 57.1875 382.058 60.2148C382.351 63.1445 382.546 66.0254 382.644 68.8574C382.741 71.5918 382.79 74.1309 382.79 76.4746C382.888 78.7207 383.083 80.5762 383.376 82.041C383.767 84.1895 384.45 86.0449 385.427 87.6074C386.403 89.0723 387.478 90.3418 388.649 91.416C389.821 92.3926 390.993 93.1738 392.165 93.7598C393.337 94.3457 394.362 94.7852 395.241 95.0781C395.827 95.3711 396.364 95.5664 396.853 95.6641C397.829 96.0547 398.513 96.0547 398.903 95.6641C398.317 97.0312 397.78 98.2031 397.292 99.1797C396.804 100.156 396.413 100.986 396.12 101.67C395.729 102.451 395.388 103.086 395.095 103.574C394.802 104.16 394.46 104.697 394.069 105.186C393.776 105.674 393.386 106.211 392.897 106.797C392.409 107.383 391.921 108.018 391.433 108.701C390.163 108.213 388.942 107.627 387.771 106.943C386.696 106.26 385.72 105.625 384.841 105.039C383.767 104.355 382.79 103.672 381.911 102.988C381.032 102.305 380.202 101.523 379.421 100.645C378.737 99.8633 378.005 99.0332 377.224 98.1543C376.54 97.2754 375.954 96.2988 375.466 95.2246C374.88 96.4941 373.464 98.3008 371.218 100.645C369.069 102.988 366.237 105.137 362.722 107.09C359.206 108.945 355.104 110.264 350.417 111.045C345.827 111.826 340.749 111.289 335.183 109.434C332.741 108.652 330.446 107.529 328.298 106.064C326.149 104.502 324.294 102.646 322.731 100.498C321.267 98.3496 320.192 95.9082 319.509 93.1738C318.923 90.3418 318.972 87.2168 319.655 83.7988C320.339 80.3809 321.56 77.5 323.317 75.1562C325.075 72.8125 327.175 70.9082 329.616 69.4434C332.058 67.9785 334.792 66.8555 337.819 66.0742C340.847 65.293 343.972 64.7559 347.194 64.4629C349.733 64.3652 352.272 64.5117 354.812 64.9023C356.96 65.293 359.206 66.0254 361.55 67.0996C363.894 68.0762 365.896 69.5898 367.556 71.6406C367.458 66.4648 367.263 62.3633 366.97 59.3359C366.774 56.2109 366.579 53.8184 366.384 52.1582C365.993 50.2051 365.651 48.8379 365.358 48.0566C364.87 47.373 364.333 46.5918 363.747 45.7129C363.259 44.834 362.624 44.0527 361.843 43.3691C361.062 42.5879 360.085 41.9531 358.913 41.4648C357.741 40.9766 356.374 40.7812 354.812 40.8789C353.151 40.9766 351.833 41.416 350.856 42.1973C349.88 42.9785 349.099 43.9062 348.513 44.9805C348.024 45.957 347.731 47.0312 347.634 48.2031C347.536 49.375 347.585 50.4004 347.78 51.2793C347.976 51.8652 348.269 52.5 348.659 53.1836C349.05 53.7695 349.587 54.4043 350.271 55.0879C350.954 55.7715 351.882 56.3574 353.054 56.8457C350.808 57.1387 348.806 57.3828 347.048 57.5781C345.29 57.6758 343.776 57.8223 342.507 58.0176C341.042 58.2129 339.772 58.3594 338.698 58.457C337.624 58.5547 336.354 58.75 334.89 59.043C333.62 59.2383 332.058 59.4824 330.202 59.7754C328.347 60.0684 326.198 60.459 323.757 60.9473C324.343 60.2637 324.88 59.6289 325.368 59.043C325.856 58.3594 326.296 57.7734 326.687 57.2852C327.077 56.6992 327.468 56.1621 327.858 55.6738ZM349.831 73.1055C348.073 73.2031 346.315 73.6426 344.558 74.4238C342.8 75.1074 341.237 76.1328 339.87 77.5C338.503 78.7695 337.331 80.2832 336.354 82.041C335.476 83.7012 335.036 85.5566 335.036 87.6074C335.036 89.6582 335.524 91.4648 336.501 93.0273C337.575 94.4922 338.942 95.7129 340.603 96.6895C342.36 97.666 344.216 98.252 346.169 98.4473C348.22 98.6426 350.222 98.4473 352.175 97.8613C354.03 97.1777 355.788 96.1035 357.448 94.6387C359.108 93.0762 360.524 91.416 361.696 89.6582C362.868 87.8027 363.698 85.9961 364.187 84.2383C364.675 82.3828 364.724 80.8691 364.333 79.6973C363.552 77.1582 361.794 75.4004 359.06 74.4238C356.325 73.3496 353.249 72.9102 349.831 73.1055ZM462.038 31.3574C461.159 33.5059 460.378 35.459 459.694 37.2168C459.108 38.9746 458.571 40.5371 458.083 41.9043C457.595 43.4668 457.155 44.834 456.765 46.0059C456.374 47.373 455.935 48.9355 455.446 50.6934C454.958 52.2559 454.323 54.209 453.542 56.5527C452.858 58.7988 452.028 61.4844 451.052 64.6094C450.271 59.9219 448.854 56.2109 446.804 53.4766C444.753 50.6445 442.653 48.4473 440.505 46.8848C437.966 45.127 435.231 43.8574 432.302 43.0762C427.028 42.1973 423.22 42.2949 420.876 43.3691C418.532 44.4434 416.97 45.8105 416.188 47.4707C415.798 48.1543 415.358 49.0332 414.87 50.1074C414.479 51.084 414.138 52.1094 413.845 53.1836C413.649 54.2578 413.601 55.332 413.698 56.4062C413.796 57.4805 414.235 58.3594 415.017 59.043C415.505 59.5312 416.774 60.2148 418.825 61.0938C420.876 61.875 423.317 62.8027 426.149 63.877C429.079 64.8535 432.155 65.9277 435.378 67.0996C438.698 68.2715 441.823 69.4434 444.753 70.6152C447.683 71.7871 450.222 72.959 452.37 74.1309C454.519 75.3027 455.935 76.377 456.618 77.3535C457.204 78.3301 457.839 79.6484 458.522 81.3086C459.304 82.8711 459.841 84.6289 460.134 86.582C460.524 88.4375 460.622 90.3906 460.427 92.4414C460.329 94.3945 459.792 96.3477 458.815 98.3008C457.839 100.254 456.276 102.061 454.128 103.721C452.077 105.381 449.294 106.748 445.778 107.822C441.677 109.092 437.722 109.434 433.913 108.848C430.104 108.262 426.589 107.383 423.366 106.211C420.241 105.039 417.507 103.916 415.163 102.842C412.819 101.67 411.159 101.182 410.183 101.377C409.108 101.572 407.888 102.109 406.521 102.988C405.153 103.867 403.835 104.795 402.565 105.771C401.394 106.65 400.368 107.48 399.489 108.262C398.61 108.945 398.171 109.189 398.171 108.994C398.171 108.799 398.317 108.213 398.61 107.236C399.001 106.26 399.392 105.088 399.782 103.721C400.271 102.256 400.71 100.693 401.101 99.0332C401.589 97.2754 401.931 95.6152 402.126 94.0527C402.321 92.7832 402.565 91.2207 402.858 89.3652C403.054 87.7051 403.298 85.7031 403.591 83.3594C403.981 80.918 404.421 77.9883 404.909 74.5703C405.397 77.1094 406.081 79.3066 406.96 81.1621C407.937 83.0176 408.864 84.6289 409.743 85.9961C410.817 87.5586 411.843 88.877 412.819 89.9512C414.284 91.3184 415.993 92.5879 417.946 93.7598C419.997 94.9316 422.048 95.957 424.099 96.8359C426.149 97.6172 428.103 98.1055 429.958 98.3008C431.813 98.4961 433.376 98.3008 434.646 97.7148C435.915 97.1289 436.989 96.0547 437.868 94.4922C438.845 92.9297 439.528 91.2207 439.919 89.3652C440.31 87.5098 440.456 85.752 440.358 84.0918C440.261 82.334 439.821 80.918 439.04 79.8438C438.454 79.1602 437.087 78.2812 434.938 77.207C432.888 76.1328 430.397 74.9609 427.468 73.6914C424.636 72.4219 421.608 71.1035 418.386 69.7363C415.261 68.3691 412.282 67.002 409.45 65.6348C406.716 64.1699 404.421 62.8027 402.565 61.5332C400.808 60.166 399.831 58.9453 399.636 57.8711C399.44 56.3086 399.294 54.5996 399.196 52.7441C399.099 50.791 399.196 48.8867 399.489 47.0312C399.88 45.0781 400.563 43.2227 401.54 41.4648C402.614 39.707 404.177 38.2422 406.228 37.0703C407.595 36.2891 409.401 35.7031 411.647 35.3125C413.894 34.9219 416.384 34.7266 419.118 34.7266C421.853 34.6289 424.685 34.7266 427.614 35.0195C430.544 35.2148 433.327 35.5078 435.964 35.8984C438.698 36.1914 441.14 36.582 443.288 37.0703C445.534 37.5586 447.243 37.998 448.415 38.3887C449.782 38.877 451.247 38.9258 452.81 38.5352C454.177 38.2422 455.642 37.6074 457.204 36.6309C458.767 35.6543 460.378 33.8965 462.038 31.3574ZM465.847 9.38477C466.921 9.87305 468.19 10.2148 469.655 10.4102C471.218 10.6055 472.683 10.7031 474.05 10.7031C475.71 10.7031 477.419 10.6543 479.177 10.5566C480.935 10.459 483.083 10.2637 485.622 9.9707C487.673 9.77539 490.212 9.53125 493.239 9.23828C496.267 8.94531 499.636 8.55469 503.347 8.06641C501.979 8.75 500.808 9.48242 499.831 10.2637C498.854 11.0449 498.024 11.8262 497.341 12.6074C496.56 13.4863 495.925 14.3652 495.437 15.2441C494.753 16.416 493.825 18.4668 492.653 21.3965C491.579 24.2285 490.456 27.4023 489.284 30.918C488.21 34.4336 487.233 37.998 486.354 41.6113C485.573 45.2246 485.134 48.3008 485.036 50.8398C484.938 52.9883 484.841 55.4297 484.743 58.1641C484.646 60.5078 484.548 63.3887 484.45 66.8066C484.353 70.2246 484.255 74.1309 484.157 78.5254C491.188 73.4473 496.608 69.3945 500.417 66.3672C504.226 63.2422 507.009 60.8496 508.767 59.1895C510.817 57.334 512.038 56.0156 512.429 55.2344C512.331 54.6484 512.087 54.0137 511.696 53.3301C511.208 52.7441 510.524 52.0605 509.646 51.2793C508.767 50.498 507.448 49.6191 505.69 48.6426C508.229 48.9355 510.427 49.1309 512.282 49.2285C514.235 49.3262 515.896 49.4238 517.263 49.5215C518.825 49.6191 520.192 49.6191 521.364 49.5215C522.634 49.5215 524.196 49.4727 526.052 49.375C529.274 49.2773 534.255 49.1309 540.993 48.9355C534.45 52.3535 529.274 55.2832 525.466 57.7246C523.317 59.0918 521.413 60.3613 519.753 61.5332C518.093 62.8027 516.384 64.1211 514.626 65.4883C513.063 66.6602 511.257 68.0273 509.206 69.5898C507.253 71.1523 505.3 72.8125 503.347 74.5703C506.765 80.1367 509.743 84.7266 512.282 88.3398C514.919 91.9531 517.116 94.8828 518.874 97.1289C520.925 99.7656 522.731 101.865 524.294 103.428C525.856 104.893 527.907 106.553 530.446 108.408C532.595 110.068 535.378 112.021 538.796 114.268C542.312 116.416 546.56 118.906 551.54 121.738C549.001 121.25 546.56 120.908 544.216 120.713C541.872 120.615 539.87 120.615 538.21 120.713C536.159 120.811 534.304 121.006 532.644 121.299C530.886 121.689 528.933 122.178 526.784 122.764C524.929 123.252 522.731 123.887 520.192 124.668C517.751 125.547 515.065 126.67 512.136 128.037C513.991 126.67 515.358 125.352 516.237 124.082C517.214 122.91 517.897 121.934 518.288 121.152C518.679 120.176 518.825 119.346 518.728 118.662C518.239 117.686 517.116 115.684 515.358 112.656C513.698 110.117 511.257 106.406 508.034 101.523C504.812 96.6406 500.222 90 494.265 81.6016C493.972 81.6992 493.483 81.9922 492.8 82.4805C492.214 82.9688 491.335 83.6523 490.163 84.5312C488.991 85.3125 487.429 86.4844 485.476 88.0469L489.431 113.682C488.552 114.072 487.575 114.414 486.501 114.707C485.524 115 484.597 115.244 483.718 115.439C482.644 115.732 481.569 115.928 480.495 116.025C479.421 116.123 478.151 116.318 476.687 116.611C475.417 116.807 473.903 117.051 472.146 117.344C470.388 117.734 468.386 118.174 466.14 118.662C467.409 117.783 468.435 116.758 469.216 115.586C469.997 114.512 470.632 113.486 471.12 112.51C471.608 111.436 472.048 110.312 472.438 109.141C472.634 108.164 472.829 105.625 473.024 101.523C473.317 97.4219 473.562 92.5391 473.757 86.875C473.952 81.1133 474.099 74.9609 474.196 68.418C474.392 61.875 474.489 55.7227 474.489 49.9609C474.489 44.1016 474.44 39.0234 474.343 34.7266C474.245 30.332 474.05 27.5 473.757 26.2305C473.269 24.668 472.683 23.0078 471.999 21.25C471.413 19.6875 470.583 17.9297 469.509 15.9766C468.532 13.9258 467.312 11.7285 465.847 9.38477ZM584.499 13.9258C590.358 14.4141 595.485 14.707 599.88 14.8047C604.372 14.9023 608.181 14.9512 611.306 14.9512C614.919 14.9512 618.044 14.8535 620.681 14.6582C623.415 14.3652 626.979 13.9746 631.374 13.4863C635.085 12.998 639.87 12.3633 645.729 11.582C651.589 10.7031 658.718 9.58008 667.116 8.21289C666.042 9.87305 665.114 11.6309 664.333 13.4863C663.649 15.2441 663.063 16.8555 662.575 18.3203C662.087 20.0781 661.647 21.7871 661.257 23.4473C660.964 25.3027 660.622 27.5977 660.231 30.332C659.841 32.6758 659.353 35.6543 658.767 39.2676C658.278 42.7832 657.644 46.9824 656.862 51.8652C653.933 44.248 650.954 38.3887 647.927 34.2871C644.997 30.1855 642.263 27.1582 639.724 25.2051C636.794 22.959 634.011 21.6895 631.374 21.3965C627.565 21.3965 624.44 22.1289 621.999 23.5938C619.558 25.0586 617.556 26.9629 615.993 29.3066C614.528 31.5527 613.405 34.043 612.624 36.7773C611.843 39.4141 611.306 42.002 611.013 44.541C610.72 46.9824 610.524 49.1797 610.427 51.1328C610.329 52.9883 610.231 54.2578 610.134 54.9414C613.552 54.7461 616.433 54.502 618.776 54.209C621.12 53.916 622.976 53.623 624.343 53.3301C626.003 52.9395 627.321 52.5488 628.298 52.1582C629.763 51.377 631.228 50.4492 632.692 49.375C633.962 48.3984 635.28 47.2266 636.647 45.8594C638.112 44.4922 639.382 42.832 640.456 40.8789C639.87 44.3945 639.333 47.3242 638.845 49.668C638.454 52.0117 638.112 53.8672 637.819 55.2344C637.429 56.8945 637.185 58.1641 637.087 59.043C636.892 59.9219 636.647 61.1426 636.354 62.7051C636.062 64.0723 635.72 65.8301 635.329 67.9785C634.938 70.127 634.499 72.8125 634.011 76.0352C632.839 73.9844 631.618 72.3242 630.349 71.0547C629.079 69.6875 627.907 68.6133 626.833 67.832C625.563 66.9531 624.343 66.2695 623.171 65.7812C621.901 65.3906 620.534 65 619.069 64.6094C617.8 64.3164 616.286 64.0234 614.528 63.7305C612.868 63.3398 611.062 62.998 609.108 62.7051C609.304 67.9785 609.597 72.5195 609.987 76.3281C610.378 80.0391 610.72 83.1641 611.013 85.7031C611.403 88.6328 611.794 91.0742 612.185 93.0273C612.673 94.9805 613.454 97.0801 614.528 99.3262C615.407 101.279 616.628 103.525 618.19 106.064C619.851 108.506 621.95 111.143 624.489 113.975C622.536 113.486 620.485 113.145 618.337 112.949C616.188 112.754 614.284 112.607 612.624 112.51C610.573 112.412 608.62 112.412 606.765 112.51C604.812 112.607 602.663 112.803 600.319 113.096C598.366 113.291 596.12 113.584 593.581 113.975C591.042 114.365 588.356 114.805 585.524 115.293C587.185 113.633 588.552 111.973 589.626 110.312C590.7 108.652 591.481 107.188 591.97 105.918C592.556 104.453 592.946 103.037 593.142 101.67C593.239 100.498 593.288 97.959 593.288 94.0527C593.288 90.0488 593.239 85.4102 593.142 80.1367C593.044 74.7656 592.897 69.1016 592.702 63.1445C592.507 57.1875 592.312 51.6211 592.116 46.4453C591.921 41.1719 591.677 36.6797 591.384 32.9688C591.188 29.2578 590.944 27.0117 590.651 26.2305C590.261 25.2539 589.821 24.1309 589.333 22.8613C588.552 20.8105 586.94 17.832 584.499 13.9258ZM691.433 49.375C693.972 49.375 696.608 49.8633 699.343 50.8398C702.077 51.7188 704.714 52.8906 707.253 54.3555C709.792 55.7227 712.087 57.2363 714.138 58.8965C716.286 60.459 718.044 61.9727 719.411 63.4375C721.853 66.0742 723.513 69.6387 724.392 74.1309C725.368 78.5254 725.563 83.0664 724.978 87.7539C724.392 92.3438 723.024 96.6895 720.876 100.791C718.728 104.893 715.749 107.92 711.94 109.873C709.206 111.24 706.521 112.314 703.884 113.096C701.247 113.877 698.708 114.463 696.267 114.854C693.825 115.244 691.53 115.439 689.382 115.439C687.233 115.439 685.378 115.391 683.815 115.293C680.886 115.098 677.81 114.072 674.587 112.217C671.462 110.361 668.483 108.066 665.651 105.332C662.917 102.598 660.573 99.6191 658.62 96.3965C656.667 93.0762 655.495 89.9512 655.104 87.0215C654.519 83.0176 654.421 78.8184 654.812 74.4238C655.202 70.0293 656.618 65.9766 659.06 62.2656C661.599 58.5547 665.407 55.4785 670.485 53.0371C675.661 50.5957 682.644 49.375 691.433 49.375ZM686.599 106.211C687.673 106.406 689.138 106.162 690.993 105.479C692.849 104.697 694.655 103.477 696.413 101.816C698.269 100.156 699.88 98.0566 701.247 95.5176C702.712 92.8809 703.591 89.707 703.884 85.9961C704.177 82.3828 704.177 79.0625 703.884 76.0352C703.688 73.0078 703.249 70.3711 702.565 68.125C701.882 65.7812 701.101 63.877 700.222 62.4121C699.343 60.9473 698.415 59.9219 697.438 59.3359C695.778 58.457 693.776 57.7734 691.433 57.2852C689.089 56.6992 687.087 56.7969 685.427 57.5781C684.646 57.9688 683.669 58.7988 682.497 60.0684C681.325 61.3379 680.153 62.9492 678.981 64.9023C677.81 66.7578 676.735 68.9062 675.759 71.3477C674.88 73.7891 674.245 76.3281 673.854 78.9648C673.464 81.6016 673.366 84.4336 673.562 87.4609C673.854 90.4883 674.489 93.3691 675.466 96.1035C676.442 98.7402 677.81 101.035 679.567 102.988C681.423 104.844 683.767 105.918 686.599 106.211ZM732.741 47.6172C735.28 48.1055 737.478 48.4961 739.333 48.7891C741.286 48.9844 742.946 49.1797 744.313 49.375C745.876 49.5703 747.243 49.7168 748.415 49.8145C749.587 49.9121 750.954 50.0098 752.517 50.1074C755.153 50.2051 758.864 50.2051 763.649 50.1074C760.817 49.9121 758.571 50.6445 756.911 52.3047C755.349 53.8672 754.177 55.6738 753.396 57.7246C752.419 60.166 751.882 62.998 751.784 66.2207C751.589 70.5176 751.687 74.4238 752.077 77.9395C752.565 81.3574 753.396 84.2871 754.567 86.7285C755.837 89.0723 757.497 90.8301 759.548 92.002C761.599 93.0762 764.235 93.3691 767.458 92.8809C770.681 92.3926 773.122 91.2695 774.782 89.5117C776.54 87.6562 777.81 85.4102 778.591 82.7734C779.372 80.0391 779.812 76.9629 779.909 73.5449C780.104 70.127 780.251 66.5625 780.349 62.8516C780.349 59.1406 780.3 56.5039 780.202 54.9414C780.202 53.2812 780.153 52.207 780.056 51.7188C779.958 51.2305 779.812 51.0352 779.616 51.1328C779.421 51.1328 779.177 50.8887 778.884 50.4004C778.688 50.0098 778.396 49.6191 778.005 49.2285C777.712 48.8379 777.321 48.3984 776.833 47.9102C776.345 47.3242 775.808 46.7383 775.222 46.1523C777.761 46.25 780.007 46.3477 781.96 46.4453C784.011 46.4453 785.72 46.4941 787.087 46.5918C788.649 46.6895 790.017 46.7871 791.188 46.8848C792.263 46.9824 793.679 47.1289 795.437 47.3242C796.901 47.5195 798.806 47.7148 801.149 47.9102C803.493 48.1055 806.276 48.3984 809.499 48.7891C807.253 49.2773 805.446 50.0098 804.079 50.9863C802.712 51.9629 801.638 52.9395 800.856 53.916C799.978 54.9902 799.343 56.1621 798.952 57.4316C798.659 59.0918 798.659 61.6309 798.952 65.0488C799.147 68.0762 799.636 72.2266 800.417 77.5C801.198 82.7734 802.419 89.707 804.079 98.3008L792.507 105.186L790.163 85.7031C787.331 90.4883 784.304 94.1992 781.081 96.8359C777.956 99.375 775.026 101.23 772.292 102.402C769.069 103.77 765.944 104.551 762.917 104.746C758.913 104.746 755.446 104.502 752.517 104.014C749.685 103.428 747.243 102.695 745.192 101.816C743.142 100.938 741.481 99.9609 740.212 98.8867C739.04 97.7148 738.161 96.543 737.575 95.3711C736.208 92.9297 735.476 89.8047 735.378 85.9961C735.28 82.0898 735.427 78.2324 735.817 74.4238C736.208 70.5176 736.647 66.9531 737.136 63.7305C737.624 60.5078 737.771 58.3105 737.575 57.1387C737.38 56.2598 737.087 55.2832 736.696 54.209C736.306 53.3301 735.817 52.3535 735.231 51.2793C734.646 50.1074 733.815 48.8867 732.741 47.6172ZM816.237 98.8867C816.921 95.6641 817.409 92.832 817.702 90.3906C818.093 87.8516 818.386 85.752 818.581 84.0918C818.776 82.1387 818.874 80.4785 818.874 79.1113C818.776 77.4512 818.679 75.498 818.581 73.252C818.581 70.9082 818.483 68.6133 818.288 66.3672C818.19 64.0234 818.044 61.9727 817.849 60.2148C817.653 58.3594 817.409 57.041 817.116 56.2598C816.726 55.4785 816.188 54.6484 815.505 53.7695C814.138 52.1094 812.136 50.498 809.499 48.9355C811.745 48.4473 813.649 48.0566 815.212 47.7637C816.872 47.373 818.239 47.0312 819.313 46.7383C820.485 46.3477 821.511 46.0059 822.39 45.7129C823.171 45.4199 824.099 45.127 825.173 44.834C826.052 44.6387 827.126 44.3945 828.396 44.1016C829.665 43.8086 831.13 43.4668 832.79 43.0762L832.351 56.4062C835.476 52.6953 838.649 49.9121 841.872 48.0566C845.095 46.2012 848.122 44.8828 850.954 44.1016C854.177 43.125 857.351 42.6367 860.476 42.6367C864.382 42.832 867.995 43.4668 871.315 44.541C874.733 45.6152 877.663 46.8848 880.104 48.3496C882.644 49.7168 884.694 51.1816 886.257 52.7441C887.819 54.3066 888.747 55.6738 889.04 56.8457C890.212 60.6543 890.505 64.1699 889.919 67.3926C889.333 70.5176 888.552 73.5938 887.575 76.6211C886.696 79.5508 885.915 82.4805 885.231 85.4102C884.646 88.3398 884.89 91.5137 885.964 94.9316C886.354 95.8105 886.745 96.6895 887.136 97.5684C887.526 98.3496 888.015 99.1309 888.601 99.9121C889.187 100.693 889.87 101.328 890.651 101.816C889.577 101.719 888.503 101.67 887.429 101.67C886.354 101.572 885.378 101.475 884.499 101.377C883.425 101.279 882.448 101.182 881.569 101.084C880.593 100.986 879.274 100.938 877.614 100.938C874.782 100.938 870.388 101.084 864.431 101.377C865.31 99.3262 865.993 97.6172 866.481 96.25C867.067 94.7852 867.556 93.6133 867.946 92.7344C868.337 91.6602 868.63 90.8301 868.825 90.2441C869.997 87.4121 870.681 84.1895 870.876 80.5762C871.169 76.9629 870.925 73.3008 870.144 69.5898C869.851 68.3203 869.362 66.8066 868.679 65.0488C867.995 63.291 867.067 61.582 865.896 59.9219C864.821 58.2617 863.503 56.8457 861.94 55.6738C860.476 54.502 858.767 53.8184 856.813 53.623C854.86 53.4277 852.663 53.916 850.222 55.0879C847.878 56.2598 845.339 58.4082 842.604 61.5332C840.554 64.1699 838.942 67.3926 837.771 71.2012C836.696 74.4238 835.964 78.4766 835.573 83.3594C835.183 88.1445 835.769 93.7598 837.331 100.205C835.964 100.01 834.694 99.9121 833.522 99.9121C832.351 99.8145 831.374 99.7168 830.593 99.6191C829.616 99.5215 828.737 99.4238 827.956 99.3262C827.077 99.3262 826.101 99.2773 825.026 99.1797C824.05 99.1797 822.829 99.1797 821.364 99.1797C819.899 99.082 818.19 98.9844 816.237 98.8867ZM970.046 2.79297C971.901 2.89062 973.903 2.93945 976.052 2.93945C977.907 2.93945 980.007 2.98828 982.351 3.08594C984.792 3.08594 987.331 2.98828 989.968 2.79297C987.624 3.86719 985.573 5.42969 983.815 7.48047C982.058 9.53125 980.642 11.582 979.567 13.6328C978.2 16.0742 977.077 18.6133 976.198 21.25C975.71 22.8125 975.319 25.5957 975.026 29.5996C974.733 33.5059 974.489 38.0957 974.294 43.3691C974.196 48.6426 974.147 54.209 974.147 60.0684C974.147 65.9277 974.196 71.543 974.294 76.9141C974.392 82.1875 974.538 86.875 974.733 90.9766C974.929 95.0781 975.173 97.959 975.466 99.6191C975.856 101.572 976.345 103.428 976.931 105.186C977.419 106.748 978.054 108.359 978.835 110.02C979.616 111.582 980.593 112.852 981.765 113.828L966.823 120.566C966.042 119.492 965.407 118.369 964.919 117.197C964.431 116.123 964.04 115.146 963.747 114.268C963.356 113.193 963.112 112.217 963.015 111.338C962.819 110.166 962.624 108.896 962.429 107.529C962.233 106.064 961.989 104.697 961.696 103.428C961.501 102.061 961.354 100.938 961.257 100.059C961.159 99.1797 961.159 98.6426 961.257 98.4473C961.354 98.252 960.769 99.1309 959.499 101.084C958.229 102.939 956.325 105.137 953.786 107.676C951.345 110.117 948.317 112.51 944.704 114.854C941.091 117.1 937.038 118.516 932.546 119.102C927.956 119.688 923.708 118.809 919.802 116.465C915.993 114.121 912.722 110.85 909.987 106.65C907.253 102.354 905.153 97.4219 903.688 91.8555C902.321 86.1914 901.784 80.4297 902.077 74.5703C902.272 70.6641 903.151 67.1973 904.714 64.1699C906.276 61.0449 908.229 58.3594 910.573 56.1133C913.015 53.7695 915.651 51.8164 918.483 50.2539C921.413 48.5938 924.245 47.2266 926.979 46.1523C929.812 45.0781 932.448 44.2969 934.89 43.8086C937.331 43.3203 939.284 42.9785 940.749 42.7832C942.507 42.6855 944.509 42.9785 946.755 43.6621C948.708 44.248 950.954 45.2246 953.493 46.5918C956.13 47.959 959.06 50.0098 962.282 52.7441C961.696 42.9785 961.159 35.166 960.671 29.3066C960.183 23.3496 959.694 18.8086 959.206 15.6836C958.718 11.9727 958.278 9.43359 957.888 8.06641C957.399 7.08984 956.765 6.11328 955.983 5.13672C955.3 4.35547 954.421 3.57422 953.347 2.79297C952.37 1.91406 951.198 1.23047 949.831 0.742188C952.37 1.23047 954.812 1.57227 957.155 1.76758C959.499 1.96289 961.647 2.1582 963.601 2.35352C965.847 2.54883 967.995 2.69531 970.046 2.79297ZM933.278 57.4316C931.423 58.1152 929.909 59.2871 928.737 60.9473C927.663 62.6074 926.784 64.6094 926.101 66.9531C925.417 69.1992 924.929 71.6406 924.636 74.2773C924.44 76.8164 924.294 79.3066 924.196 81.748C924.196 84.0918 924.196 86.2402 924.196 88.1934C924.196 90.1465 924.196 91.6113 924.196 92.5879C924.196 93.1738 924.294 94.248 924.489 95.8105C924.782 97.2754 925.368 98.8379 926.247 100.498C927.126 102.061 928.347 103.477 929.909 104.746C931.569 106.016 933.767 106.65 936.501 106.65C938.747 106.455 941.14 105.674 943.679 104.307C945.925 103.135 948.464 101.279 951.296 98.7402C954.226 96.1035 957.351 92.3438 960.671 87.4609C960.476 84.3359 960.329 81.748 960.231 79.6973C960.231 77.6465 960.183 75.9863 960.085 74.7168C959.987 73.252 959.938 72.0801 959.938 71.2012V69.0039C959.938 68.418 959.938 67.7832 959.938 67.0996C959.938 66.416 959.987 65.7812 960.085 65.1953C957.351 63.2422 954.909 61.582 952.761 60.2148C950.71 58.75 948.659 57.6758 946.608 56.9922C944.655 56.2109 942.604 55.8691 940.456 55.9668C938.405 55.9668 936.013 56.4551 933.278 57.4316Z" fill="white"/>
</g>
<defs>
<filter id="filter0_d_420_11" x="0.573242" y="0.742188" width="989.395" height="131.295" filterUnits="userSpaceOnUse" color-interpolation-filters="sRGB">
<feFlood flood-opacity="0" result="BackgroundImageFix"/>
<feColorMatrix in="SourceAlpha" type="matrix" values="0 0 0 0 0 0 0 0 0 0 0 0 0 0 0 0 0 0 127 0" result="hardAlpha"/>
<feOffset dx="-10" dy="4"/>
<feComposite in2="hardAlpha" operator="out"/>
<feColorMatrix type="matrix" values="0 0 0 0 0 0 0 0 0 0 0 0 0 0 0 0 0 0 0.25 0"/>
<feBlend mode="normal" in2="BackgroundImageFix" result="effect1_dropShadow_420_11"/>
<feBlend mode="normal" in="SourceGraphic" in2="effect1_dropShadow_420_11" result="shape"/>
</filter>
</defs>
</svg>
