<svg width="48" height="48" viewBox="0 0 48 48" fill="none" xmlns="http://www.w3.org/2000/svg">
<path d="M38.7109 47.5491H8.83811C3.88877 47.5491 0 43.6603 0 38.711V8.83811C0 3.88877 3.88877 0 8.83811 0H38.7109C43.6603 0 47.549 3.88877 47.549 8.83811V38.711C47.549 43.6603 43.4835 47.5491 38.7109 47.5491Z" fill="url(#paint0_linear_415_10)"/>
<path fill-rule="evenodd" clip-rule="evenodd" d="M17.6828 12.2664C17.4118 12.3611 17.1752 12.5242 17.0343 12.7133C16.8169 13.005 16.7703 13.2472 16.7703 14.085V14.8549L15.7344 14.8554C14.7494 14.8558 14.6864 14.8611 14.452 14.9634C14.3165 15.0226 14.1257 15.1585 14.0281 15.2655C13.7312 15.5907 13.6991 15.7471 13.6991 16.8683C13.6991 17.8021 13.705 17.8667 13.8002 17.9802C13.9399 18.1468 14.1896 18.1468 14.3293 17.9802C14.4242 17.867 14.4304 17.8017 14.4304 16.9036C14.4304 15.5033 14.3924 15.5406 15.8172 15.5406H16.7703V15.8752C16.7703 16.5119 17.0266 16.9524 17.5232 17.1692C17.9919 17.374 18.6201 17.2866 18.9807 16.9665C19.241 16.7355 19.3659 16.4309 19.3922 15.9635L19.416 15.5406H20.7743H22.1326V15.8752C22.1326 16.3106 22.2336 16.6175 22.4579 16.8631C23.0726 17.5366 24.2742 17.3681 24.6485 16.5561C24.6916 16.4624 24.7383 16.1968 24.7525 15.9635L24.7783 15.5406H26.13H27.4816L27.5075 15.9635C27.5217 16.1968 27.5684 16.4624 27.6115 16.5561C27.9858 17.3681 29.1874 17.5366 29.8021 16.8631C30.0264 16.6175 30.1274 16.3106 30.1274 15.8752V15.5406H31.0804C31.8369 15.5406 32.0629 15.5549 32.1764 15.61C32.4876 15.7609 32.4673 15.2325 32.4673 23.1876V30.4276L32.5801 30.527C32.73 30.659 32.9567 30.6562 33.0925 30.5206L33.1985 30.4148V23.1459C33.1985 15.0705 33.2228 15.6525 32.8695 15.2655C32.7719 15.1585 32.5812 15.0226 32.4456 14.9634C32.2114 14.8611 32.1481 14.8558 31.1671 14.8554L30.135 14.8549L30.119 13.9978C30.1011 13.0421 30.0567 12.8756 29.7396 12.5783C29.4626 12.3185 29.2235 12.2284 28.8111 12.2284C28.3988 12.2284 28.1597 12.3185 27.8827 12.5783C27.5656 12.8756 27.5212 13.0421 27.5033 13.9978L27.4873 14.8549H26.13H24.7726L24.7566 13.9978C24.7388 13.0421 24.6943 12.8756 24.3773 12.5783C24.1002 12.3185 23.8612 12.2284 23.4488 12.2284C23.0365 12.2284 22.7974 12.3185 22.5204 12.5783C22.2033 12.8756 22.1588 13.0421 22.141 13.9978L22.125 14.8549H20.7677H19.4103L19.3943 13.9978C19.3765 13.0421 19.332 12.8756 19.015 12.5783C18.6747 12.2593 18.0927 12.123 17.6828 12.2664ZM18.3288 12.9476C18.395 12.9791 18.4992 13.0744 18.5603 13.1594C18.6701 13.3122 18.6715 13.332 18.6715 14.726C18.6715 16.2539 18.6554 16.3644 18.4117 16.5142C18.2334 16.6237 17.8879 16.6156 17.7286 16.4982C17.5135 16.3395 17.4943 16.1757 17.5107 14.6414L17.5259 13.2164L17.6478 13.0935C17.8494 12.8902 18.0962 12.8373 18.3288 12.9476ZM23.6911 12.9476C23.7573 12.9791 23.8615 13.0744 23.9227 13.1594C24.0324 13.3122 24.0338 13.332 24.0338 14.726C24.0338 16.2539 24.0178 16.3644 23.7741 16.5142C23.6132 16.6129 23.2613 16.6147 23.1133 16.5175C22.8812 16.3651 22.8638 16.2405 22.8638 14.726C22.8638 13.332 22.8653 13.3122 22.975 13.1594C23.1574 12.9057 23.4317 12.8246 23.6911 12.9476ZM29.0534 12.9476C29.1196 12.9791 29.2239 13.0744 29.285 13.1594C29.3947 13.3122 29.3961 13.332 29.3961 14.726C29.3961 16.2405 29.3788 16.3651 29.1467 16.5175C28.9986 16.6147 28.6467 16.6129 28.4859 16.5142C28.2422 16.3644 28.2262 16.2539 28.2262 14.726C28.2262 13.332 28.2276 13.3122 28.3373 13.1594C28.5197 12.9057 28.794 12.8246 29.0534 12.9476ZM13.9095 19.0599C13.8509 19.0826 13.7796 19.1421 13.751 19.1922C13.7149 19.2556 13.6991 21.6083 13.6991 26.9352C13.6991 35.5738 13.6654 34.8506 14.0868 35.2458C14.509 35.6417 13.6748 35.6093 23.4488 35.6093C33.2228 35.6093 32.3887 35.6417 32.8109 35.2458C33.1818 34.8979 33.1985 34.8096 33.1985 33.1981C33.1985 32.3794 33.1789 31.7746 33.1508 31.7253C33.038 31.5278 32.5822 31.5416 32.499 31.7451C32.4815 31.7876 32.4673 32.4286 32.4673 33.1695C32.4673 34.2842 32.4545 34.5398 32.3933 34.6508C32.232 34.9434 32.8828 34.9236 23.4488 34.9236C15.8709 34.9236 14.8475 34.9154 14.7212 34.8542C14.4096 34.7031 14.4304 35.2711 14.4304 26.8851C14.4304 19.6835 14.4255 19.2483 14.345 19.1591C14.2429 19.0459 14.0559 19.0033 13.9095 19.0599ZM19.8158 19.1044C19.7615 19.1248 19.2702 19.6483 18.724 20.2678C18.1779 20.8872 17.7194 21.383 17.7051 21.3697C17.6909 21.3563 17.568 21.1862 17.4319 20.9916C17.2048 20.6666 17.17 20.6366 17.0046 20.6237C16.7863 20.6067 16.624 20.7349 16.624 20.9244C16.624 21.0024 16.776 21.2842 17.0203 21.6592C17.4509 22.3201 17.5604 22.4097 17.8009 22.298C17.9109 22.2469 18.651 21.4396 19.9726 19.9292C20.3361 19.5138 20.3795 19.3927 20.2228 19.2308C20.0909 19.0945 19.9547 19.0522 19.8158 19.1044ZM21.4986 20.3833C20.4751 20.6753 20.3282 21.9332 21.2663 22.3716L21.518 22.4892H25.5855C28.6484 22.4892 29.7025 22.4754 29.8536 22.4334C30.1174 22.3598 30.4769 22.0228 30.5553 21.7753C30.6942 21.3366 30.5429 20.8339 30.1977 20.587C29.8488 20.3374 29.9039 20.3403 25.5982 20.3446C23.4106 20.3467 21.5658 20.3642 21.4986 20.3833ZM29.6553 21.0795C29.9128 21.2082 29.9651 21.5027 29.7639 21.6913L29.6443 21.8035H25.6247H21.6051L21.4745 21.658C21.3733 21.5452 21.3505 21.4821 21.373 21.3767C21.4073 21.2159 21.4829 21.1216 21.619 21.0699C21.7836 21.0073 29.5294 21.0167 29.6553 21.0795ZM19.8158 23.6302C19.7615 23.6506 19.2702 24.1741 18.724 24.7935C18.1779 25.4129 17.7194 25.9088 17.7051 25.8954C17.6909 25.8821 17.568 25.7119 17.4319 25.5173C17.2048 25.1923 17.17 25.1624 17.0046 25.1495C16.7863 25.1325 16.624 25.2607 16.624 25.4501C16.624 25.5281 16.776 25.81 17.0203 26.1849C17.4512 26.8463 17.56 26.9352 17.8021 26.8237C17.9082 26.7749 18.8058 25.7928 20.0934 24.3167C20.3359 24.0387 20.3667 23.9053 20.2228 23.7565C20.0909 23.6202 19.9547 23.5779 19.8158 23.6302ZM21.6208 24.8969C21.1992 24.9884 20.9265 25.1679 20.7706 25.4563C20.4787 25.9967 20.7117 26.6684 21.2776 26.9179C21.4967 27.0145 21.518 27.015 25.6298 27.0139C29.551 27.013 29.7717 27.0086 29.9567 26.9281C30.364 26.7509 30.6157 26.3776 30.6138 25.9536C30.6119 25.5397 30.3866 25.2018 29.9751 24.996L29.7617 24.8892L25.74 24.8825C23.528 24.8788 21.6744 24.8852 21.6208 24.8969ZM29.766 25.7032C29.9197 25.8708 29.9189 26.0717 29.7639 26.217L29.6443 26.3292H25.6203C21.6787 26.3292 21.5944 26.3274 21.5001 26.239C21.3724 26.1192 21.3358 25.9653 21.3983 25.8111C21.5049 25.5483 21.4069 25.5539 25.7077 25.5649L29.6484 25.5749L29.766 25.7032ZM19.8019 28.189C19.7668 28.2022 19.2974 28.7097 18.7587 29.3168C18.2201 29.924 17.7641 30.4371 17.7453 30.4571C17.7267 30.4772 17.6048 30.3294 17.4745 30.1287C17.1724 29.6635 17.0023 29.5769 16.7525 29.7612C16.5408 29.9173 16.579 30.0687 16.9874 30.693C17.417 31.3497 17.4838 31.4151 17.7041 31.3953C17.852 31.3821 17.9769 31.2579 19.0522 30.055C19.704 29.3258 20.2584 28.6802 20.2843 28.6204C20.3989 28.3553 20.0914 28.0803 19.8019 28.189ZM21.2795 29.5306C20.8595 29.7227 20.5789 30.2153 20.647 30.641C20.7174 31.0813 21.0896 31.4468 21.561 31.5385C21.7409 31.5736 23.0342 31.5851 25.7909 31.5763L29.7617 31.5635L29.9751 31.4568C30.3866 31.2509 30.6119 30.9131 30.6138 30.4992C30.6157 30.0752 30.364 29.7019 29.9567 29.5247C29.7715 29.4441 29.553 29.4399 25.6181 29.4407C21.6095 29.4414 21.4682 29.4444 21.2795 29.5306ZM29.7639 30.2358C29.9189 30.381 29.9197 30.582 29.766 30.7496L29.6484 30.8778L25.7203 30.89C22.355 30.9005 21.7677 30.8926 21.6209 30.8351C21.3396 30.7249 21.2803 30.42 21.5001 30.2138C21.5944 30.1254 21.6787 30.1235 25.6203 30.1235H29.6443L29.7639 30.2358Z" fill="white"/>
<defs>
<linearGradient id="paint0_linear_415_10" x1="23.9385" y1="-7.88314" x2="26.9037" y2="53.4075" gradientUnits="userSpaceOnUse">
<stop stop-color="#9C2CF3"/>
<stop offset="1" stop-color="#3A49F9"/>
</linearGradient>
</defs>
</svg>
